<mxfile host="app.diagrams.net" modified="2020-11-05T21:10:12.349Z" agent="5.0 (Windows NT 10.0; Win64; x64) AppleWebKit/537.36 (KHTML, like Gecko) Chrome/86.0.4240.183 Safari/537.36" etag="gUfcV5by3KHNB7-1ETTR" version="13.8.6" type="github">
  <diagram name="Page-1" id="2a216829-ef6e-dabb-86c1-c78162f3ba2b">
    <mxGraphModel dx="1422" dy="794" grid="1" gridSize="10" guides="1" tooltips="1" connect="1" arrows="1" fold="1" page="1" pageScale="1" pageWidth="850" pageHeight="1100" background="#ffffff" math="0" shadow="0">
      <root>
        <mxCell id="0" />
        <mxCell id="1" parent="0" />
        <mxCell id="ywLbyIVmNKvdGDAa_S2u-8" style="edgeStyle=orthogonalEdgeStyle;rounded=0;orthogonalLoop=1;jettySize=auto;html=1;" edge="1" parent="1" source="ywLbyIVmNKvdGDAa_S2u-1">
          <mxGeometry relative="1" as="geometry">
            <mxPoint x="710" y="170" as="targetPoint" />
          </mxGeometry>
        </mxCell>
        <mxCell id="ywLbyIVmNKvdGDAa_S2u-10" style="edgeStyle=orthogonalEdgeStyle;rounded=0;orthogonalLoop=1;jettySize=auto;html=1;" edge="1" parent="1" target="ywLbyIVmNKvdGDAa_S2u-3">
          <mxGeometry relative="1" as="geometry">
            <mxPoint x="470" y="350" as="sourcePoint" />
            <Array as="points">
              <mxPoint x="470" y="350" />
            </Array>
          </mxGeometry>
        </mxCell>
        <mxCell id="ywLbyIVmNKvdGDAa_S2u-14" style="edgeStyle=orthogonalEdgeStyle;rounded=0;orthogonalLoop=1;jettySize=auto;html=1;" edge="1" parent="1" source="ywLbyIVmNKvdGDAa_S2u-1">
          <mxGeometry relative="1" as="geometry">
            <mxPoint x="150" y="200" as="targetPoint" />
            <Array as="points">
              <mxPoint x="150" y="290" />
            </Array>
          </mxGeometry>
        </mxCell>
        <mxCell id="ywLbyIVmNKvdGDAa_S2u-1" value="Mezzow WebConnect" style="aspect=fixed;html=1;points=[];align=center;image;fontSize=12;image=img/lib/mscae/OS_Images_Classic.svg;" vertex="1" parent="1">
          <mxGeometry x="400" y="250" width="86.96" height="80" as="geometry" />
        </mxCell>
        <mxCell id="ywLbyIVmNKvdGDAa_S2u-7" style="edgeStyle=orthogonalEdgeStyle;rounded=0;orthogonalLoop=1;jettySize=auto;html=1;" edge="1" parent="1" source="ywLbyIVmNKvdGDAa_S2u-2" target="ywLbyIVmNKvdGDAa_S2u-1">
          <mxGeometry relative="1" as="geometry" />
        </mxCell>
        <mxCell id="ywLbyIVmNKvdGDAa_S2u-2" value="H.I.S" style="aspect=fixed;html=1;points=[];align=center;image;fontSize=12;image=img/lib/mscae/Database_General.svg;" vertex="1" parent="1">
          <mxGeometry x="120" y="90" width="68.4" height="90" as="geometry" />
        </mxCell>
        <mxCell id="ywLbyIVmNKvdGDAa_S2u-13" style="edgeStyle=orthogonalEdgeStyle;rounded=0;orthogonalLoop=1;jettySize=auto;html=1;exitX=0.239;exitY=0.111;exitDx=0;exitDy=0;exitPerimeter=0;" edge="1" parent="1" source="ywLbyIVmNKvdGDAa_S2u-3">
          <mxGeometry relative="1" as="geometry">
            <mxPoint x="420" y="350" as="targetPoint" />
            <Array as="points">
              <mxPoint x="420" y="350" />
            </Array>
          </mxGeometry>
        </mxCell>
        <mxCell id="ywLbyIVmNKvdGDAa_S2u-3" value="Mezzow Web" style="aspect=fixed;html=1;points=[];align=center;image;fontSize=12;image=img/lib/mscae/Virtual_Datacenter.svg;" vertex="1" parent="1">
          <mxGeometry x="398.48" y="450" width="90" height="90" as="geometry" />
        </mxCell>
        <mxCell id="ywLbyIVmNKvdGDAa_S2u-4" value="" style="aspect=fixed;html=1;points=[];align=center;image;fontSize=12;image=img/lib/mscae/Machine_Learning_Service_Workspaces.svg;" vertex="1" parent="1">
          <mxGeometry x="750" y="100" width="46" height="50" as="geometry" />
        </mxCell>
        <mxCell id="ywLbyIVmNKvdGDAa_S2u-5" value="Modalidades / Worklist" style="aspect=fixed;html=1;points=[];align=center;image;fontSize=12;image=img/lib/mscae/Machine_Learning_Service_Workspaces.svg;" vertex="1" parent="1">
          <mxGeometry x="690" y="100" width="46" height="50" as="geometry" />
        </mxCell>
        <mxCell id="ywLbyIVmNKvdGDAa_S2u-9" style="edgeStyle=orthogonalEdgeStyle;rounded=0;orthogonalLoop=1;jettySize=auto;html=1;entryX=1.006;entryY=0.158;entryDx=0;entryDy=0;entryPerimeter=0;" edge="1" parent="1" source="ywLbyIVmNKvdGDAa_S2u-6" target="ywLbyIVmNKvdGDAa_S2u-1">
          <mxGeometry relative="1" as="geometry">
            <mxPoint x="490" y="280" as="targetPoint" />
            <Array as="points">
              <mxPoint x="559" y="130" />
              <mxPoint x="559" y="263" />
            </Array>
          </mxGeometry>
        </mxCell>
        <mxCell id="ywLbyIVmNKvdGDAa_S2u-6" value="" style="aspect=fixed;html=1;points=[];align=center;image;fontSize=12;image=img/lib/mscae/Machine_Learning_Service_Workspaces.svg;" vertex="1" parent="1">
          <mxGeometry x="630" y="100" width="46" height="50" as="geometry" />
        </mxCell>
        <mxCell id="ywLbyIVmNKvdGDAa_S2u-12" style="edgeStyle=orthogonalEdgeStyle;rounded=0;orthogonalLoop=1;jettySize=auto;html=1;" edge="1" parent="1" source="ywLbyIVmNKvdGDAa_S2u-11" target="ywLbyIVmNKvdGDAa_S2u-3">
          <mxGeometry relative="1" as="geometry" />
        </mxCell>
        <mxCell id="ywLbyIVmNKvdGDAa_S2u-11" value="MÃ©dico" style="image;html=1;image=img/lib/clip_art/people/Doctor_Man_128x128.png" vertex="1" parent="1">
          <mxGeometry x="650" y="455" width="80" height="80" as="geometry" />
        </mxCell>
      </root>
    </mxGraphModel>
  </diagram>
</mxfile>
